<svg width="88" height="134" viewBox="0 0 88 134" fill="none" xmlns="http://www.w3.org/2000/svg">
<path d="M0 134.486V128.373C0 114.211 3.02083 102.724 9.0625 93.9107C15.1042 85.0978 23.4375 76.2085 34.0625 67.2428C23.4375 58.2771 15.1042 49.3878 9.0625 40.5749C3.02083 31.7621 0 20.2747 0 6.11299V0H12.5V6.11299C12.5 7.2337 12.526 8.278 12.5781 9.24589C12.6302 10.2138 12.7083 11.2071 12.8125 12.226H74.6875C74.7917 11.2071 74.8698 10.2138 74.9219 9.24589C74.974 8.278 75 7.2337 75 6.11299V0H87.5V6.11299C87.5 20.2747 84.4792 31.7621 78.4375 40.5749C72.3958 49.3878 64.0625 58.2771 53.4375 67.2428C64.0625 76.2085 72.3958 85.0978 78.4375 93.9107C84.4792 102.724 87.5 114.211 87.5 128.373V134.486H75V128.373C75 127.252 74.974 126.208 74.9219 125.24C74.8698 124.272 74.7917 123.279 74.6875 122.26H12.8125C12.7083 123.279 12.6302 124.272 12.5781 125.24C12.526 126.208 12.5 127.252 12.5 128.373V134.486H0ZM21.5625 36.6779H65.9375C67.2917 34.7421 68.4635 32.8064 69.4531 30.8706C70.4427 28.9348 71.3542 26.7953 72.1875 24.4519H15.3125C16.1458 26.6934 17.0573 28.8074 18.0469 30.7942C19.0365 32.7809 20.2083 34.7421 21.5625 36.6779ZM43.75 59.296C45.8333 57.5639 47.8646 55.8319 49.8437 54.0999C51.8229 52.3679 53.6979 50.6359 55.4688 48.9039H32.0312C33.8021 50.6359 35.6771 52.3679 37.6563 54.0999C39.6354 55.8319 41.6667 57.5639 43.75 59.296ZM32.0312 85.5818H55.4688C53.6979 83.8498 51.8229 82.1178 49.8437 80.3858C47.8646 78.6537 45.8333 76.9217 43.75 75.1897C41.6667 76.9217 39.6354 78.6537 37.6563 80.3858C35.6771 82.1178 33.8021 83.8498 32.0312 85.5818ZM15.3125 110.034H72.1875C71.3542 107.792 70.4427 105.678 69.4531 103.692C68.4635 101.705 67.2917 99.7435 65.9375 97.8078H21.5625C20.2083 99.7435 19.0365 101.679 18.0469 103.615C17.0573 105.551 16.1458 107.69 15.3125 110.034Z" fill="#5FE3F5"/>
</svg>
