<svg width="184" height="129" viewBox="0 0 184 129" fill="none" xmlns="http://www.w3.org/2000/svg">
<path d="M20.7 16.125C20.7 11.8484 22.3962 7.74693 25.4156 4.7229C28.4349 1.69888 32.53 0 36.8 0C41.07 0 45.1651 1.69888 48.1844 4.7229C51.2038 7.74693 52.9 11.8484 52.9 16.125C52.9 20.4016 51.2038 24.5031 48.1844 27.5271C45.1651 30.5511 41.07 32.25 36.8 32.25C32.53 32.25 28.4349 30.5511 25.4156 27.5271C22.3962 24.5031 20.7 20.4016 20.7 16.125ZM18.4 61.5342C15.525 64.7592 13.8 69.0496 13.8 73.7143C13.8 78.379 15.525 82.6694 18.4 85.8944V61.5342ZM59.915 47.3384C51.3762 54.9114 46 65.9973 46 78.3214C46 88.198 49.45 97.2683 55.2 104.381V110.571C55.2 115.668 51.0887 119.786 46 119.786H27.6C22.5112 119.786 18.4 115.668 18.4 110.571V102.854C7.5325 97.6714 0 86.5855 0 73.7143C0 55.8904 14.4037 41.4643 32.2 41.4643H41.4C48.3 41.4643 54.6825 43.6239 59.915 47.3096V47.3384ZM128.8 110.571V104.381C134.55 97.2683 138 88.198 138 78.3214C138 65.9973 132.624 54.9114 124.085 47.3096C129.317 43.6239 135.7 41.4643 142.6 41.4643H151.8C169.596 41.4643 184 55.8904 184 73.7143C184 86.5855 176.467 97.6714 165.6 102.854V110.571C165.6 115.668 161.489 119.786 156.4 119.786H138C132.911 119.786 128.8 115.668 128.8 110.571ZM131.1 16.125C131.1 11.8484 132.796 7.74693 135.816 4.7229C138.835 1.69888 142.93 0 147.2 0C151.47 0 155.565 1.69888 158.584 4.7229C161.604 7.74693 163.3 11.8484 163.3 16.125C163.3 20.4016 161.604 24.5031 158.584 27.5271C155.565 30.5511 151.47 32.25 147.2 32.25C142.93 32.25 138.835 30.5511 135.816 27.5271C132.796 24.5031 131.1 20.4016 131.1 16.125ZM165.6 61.5342V85.9232C168.475 82.6694 170.2 78.4078 170.2 73.7431C170.2 69.0784 168.475 64.7879 165.6 61.5629V61.5342ZM92 0C96.88 0 101.56 1.94158 105.011 5.3976C108.461 8.85363 110.4 13.541 110.4 18.4286C110.4 23.3161 108.461 28.0035 105.011 31.4595C101.56 34.9156 96.88 36.8571 92 36.8571C87.12 36.8571 82.4399 34.9156 78.9892 31.4595C75.5386 28.0035 73.6 23.3161 73.6 18.4286C73.6 13.541 75.5386 8.85363 78.9892 5.3976C82.4399 1.94158 87.12 0 92 0ZM69 78.3214C69 82.9862 70.725 87.2478 73.6 90.5016V66.1413C70.725 69.3951 69 73.6567 69 78.3214ZM110.4 66.1413V90.5304C113.275 87.2766 115 83.015 115 78.3502C115 73.6855 113.275 69.3951 110.4 66.1701V66.1413ZM128.8 78.3214C128.8 91.1926 121.267 102.279 110.4 107.462V119.786C110.4 124.882 106.289 129 101.2 129H82.8C77.7112 129 73.6 124.882 73.6 119.786V107.462C62.7325 102.279 55.2 91.1926 55.2 78.3214C55.2 60.4975 69.6037 46.0714 87.4 46.0714H96.6C114.396 46.0714 128.8 60.4975 128.8 78.3214Z" fill="#5FE3F5"/>
</svg>
