<?xml version="1.0" encoding="utf-8"?>
<!-- Generator: Adobe Illustrator 27.0.0, SVG Export Plug-In . SVG Version: 6.00 Build 0)  -->
<svg version="1.1" id="Layer_1" xmlns="http://www.w3.org/2000/svg" xmlns:xlink="http://www.w3.org/1999/xlink" x="0px" y="0px"
	 viewBox="0 0 150 150" style="enable-background:new 0 0 150 150;" xml:space="preserve">
<style type="text/css">
	.st0{fill:#0056BB;}
</style>
<path class="st0" d="M75,140.6c-7.8,0-15-1.9-21.6-5.8c-6.6-3.8-11.9-9.1-15.8-15.9H21.9c-1.7,0-3.1-0.6-4.2-1.7
	c-1.1-1.1-1.7-2.5-1.7-4.2c0-1.7,0.6-3.1,1.7-4.2c1.1-1.1,2.5-1.7,4.2-1.7h11.2c-0.8-3.2-1.2-6.5-1.3-9.8c-0.1-3.3-0.1-6.6-0.1-9.9
	h-9.8c-1.7,0-3.1-0.6-4.2-1.7c-1.1-1.1-1.7-2.5-1.7-4.2c0-1.7,0.6-3.1,1.7-4.2c1.1-1.1,2.5-1.7,4.2-1.7h9.8c0-3.3,0-6.6,0-9.9
	c0-3.3,0.5-6.5,1.4-9.7H21.9c-1.7,0-3.1-0.6-4.2-1.7c-1.1-1.1-1.7-2.5-1.7-4.2c0-1.7,0.6-3.1,1.7-4.2c1.1-1.1,2.5-1.7,4.2-1.7h15.7
	c1.9-3.2,4.1-6.1,6.7-8.8c2.6-2.6,5.5-4.9,8.8-6.7l-9.4-9.5c-1.1-1.1-1.6-2.4-1.6-4s0.6-3,1.8-4.2c1.1-1.1,2.4-1.6,4.1-1.6
	c1.6,0,3,0.5,4.1,1.6l12.7,12.7c3.4-1,6.8-1.5,10.2-1.5c3.4,0,6.9,0.5,10.2,1.5L98.2,11c1.1-1.1,2.4-1.6,4-1.6c1.6,0,3,0.6,4.2,1.8
	c1.1,1.1,1.6,2.4,1.6,4.1c0,1.6-0.5,3-1.6,4.1l-9.5,9.5c3.3,1.8,6.3,4,8.9,6.6c2.6,2.6,4.8,5.6,6.7,8.9h15.7c1.7,0,3.1,0.6,4.2,1.7
	c1.1,1.1,1.7,2.5,1.7,4.2c0,1.7-0.6,3.1-1.7,4.2c-1.1,1.1-2.5,1.7-4.2,1.7h-11.2c0.9,3.2,1.4,6.4,1.4,9.7c0,3.3,0,6.6,0,9.9h9.8
	c1.7,0,3.1,0.6,4.2,1.7c1.1,1.1,1.7,2.5,1.7,4.2c0,1.7-0.6,3.1-1.7,4.2c-1.1,1.1-2.5,1.7-4.2,1.7h-9.8c0,3.3,0,6.6-0.1,9.9
	c-0.1,3.3-0.5,6.6-1.3,9.8h11.2c1.7,0,3.1,0.6,4.2,1.7c1.1,1.1,1.7,2.5,1.7,4.2c0,1.7-0.6,3.1-1.7,4.2c-1.1,1.1-2.5,1.7-4.2,1.7
	h-15.7c-3.9,6.7-9.1,12-15.8,15.9C90,138.7,82.8,140.6,75,140.6z M75,128.8c8.6,0,16.1-3.1,22.2-9.2c6.2-6.2,9.2-13.6,9.2-22.2V65.9
	c0-8.6-3.1-16.1-9.2-22.2c-6.2-6.2-13.6-9.2-22.2-9.2s-16.1,3.1-22.2,9.2s-9.2,13.6-9.2,22.2v31.5c0,8.6,3.1,16.1,9.2,22.2
	C58.9,125.7,66.4,128.8,75,128.8z M66.4,103.3h17.2c1.7,0,3.1-0.6,4.2-1.7c1.1-1.1,1.7-2.5,1.7-4.2c0-1.7-0.6-3.1-1.7-4.2
	c-1.1-1.1-2.5-1.7-4.2-1.7H66.4c-1.7,0-3.1,0.6-4.2,1.7c-1.1,1.1-1.7,2.5-1.7,4.2c0,1.7,0.6,3.1,1.7,4.2
	C63.3,102.7,64.7,103.3,66.4,103.3z M66.4,71.8h17.2c1.7,0,3.1-0.6,4.2-1.7c1.1-1.1,1.7-2.5,1.7-4.2c0-1.7-0.6-3.1-1.7-4.2
	c-1.1-1.1-2.5-1.7-4.2-1.7H66.4c-1.7,0-3.1,0.6-4.2,1.7c-1.1,1.1-1.7,2.5-1.7,4.2c0,1.7,0.6,3.1,1.7,4.2
	C63.3,71.2,64.7,71.8,66.4,71.8z"/>
</svg>
