<?xml version="1.0" encoding="utf-8"?>
<!-- Generator: Adobe Illustrator 27.0.0, SVG Export Plug-In . SVG Version: 6.00 Build 0)  -->
<svg version="1.1" id="Layer_1" xmlns="http://www.w3.org/2000/svg" xmlns:xlink="http://www.w3.org/1999/xlink" x="0px" y="0px"
	 viewBox="0 0 150 150" style="enable-background:new 0 0 150 150;" xml:space="preserve">
<style type="text/css">
	.st0{fill:#0056B8;}
</style>
<path class="st0" d="M8.4,71.9c-1.1-1.2-1.7-2.6-1.7-4.2c0-1.6,0.6-3.1,1.7-4.3l21.1-21.1l-9.8-9.8l-3.8,3.8
	c-1.2,1.2-2.7,1.9-4.3,1.9c-1.6,0-3.1-0.6-4.2-1.9c-1.2-1.1-1.7-2.5-1.7-4.2c0-1.7,0.6-3.1,1.7-4.3l16-15.9c1.2-1.2,2.6-1.9,4.2-1.9
	c1.6,0,3.1,0.6,4.3,1.9c1.1,1.1,1.7,2.5,1.7,4.2c0,1.7-0.6,3.1-1.7,4.2l-3.9,3.9l9.8,9.8L59,12.7c1.2-1.2,2.7-1.9,4.3-1.9
	c1.6,0,3.1,0.6,4.2,1.9c1.2,1.2,1.9,2.6,1.9,4.2c0,1.6-0.6,3.1-1.9,4.3l-4.9,4.8l56.7,56.7c2.8,2.8,4.2,6.2,4.2,10.3
	c0,4-1.4,7.4-4.2,10.2l-5.8,6l29.9,29.7c1,1,1.3,2.1,0.8,3.4c-0.5,1.2-1.5,1.8-2.9,1.8h-5.8c-1.3,0-2.5-0.3-3.7-0.8
	c-1.2-0.5-2.3-1.2-3.2-2.1l-23.6-23.6l-5.8,6c-2.8,2.8-6.2,4.1-10.2,4.1c-4,0-7.5-1.4-10.3-4.1L21.9,66.9L17,71.9
	c-1.2,1.2-2.7,1.7-4.3,1.7C11.1,73.6,9.7,73,8.4,71.9z M30.3,58.6L87,115.3c0.5,0.5,1.1,0.7,1.8,0.7c0.7,0,1.3-0.2,1.8-0.7
	l20.2-20.4c0.5-0.5,0.8-1,0.8-1.7c0-0.7-0.3-1.3-0.8-1.7L99.1,79.5L87.3,91.2c-1.2,1.2-2.7,1.8-4.3,1.8c-1.6,0-3-0.5-4.1-1.6
	c-1.2-1.2-1.9-2.6-1.9-4.2c0-1.6,0.6-3.1,1.9-4.3l11.7-11.7L76.3,56.8L64.6,68.6c-1.2,1.1-2.6,1.7-4.2,1.7s-3.1-0.6-4.3-1.7
	c-1.1-1.2-1.7-2.7-1.7-4.3c0-1.6,0.6-3.1,1.7-4.2l11.7-11.7L54.2,34.7C54.2,34.7,30.3,58.6,30.3,58.6z M30.3,58.6l0.5-0.5l1.3-1.3
	l20.4-20.4l1.2-1.2l0.5-0.5C54.2,34.7,30.3,58.6,30.3,58.6z"/>
</svg>
