<?xml version="1.0" encoding="utf-8"?>
<!-- Generator: Adobe Illustrator 27.0.0, SVG Export Plug-In . SVG Version: 6.00 Build 0)  -->
<svg version="1.1" id="Layer_1" xmlns="http://www.w3.org/2000/svg" xmlns:xlink="http://www.w3.org/1999/xlink" x="0px" y="0px"
	 viewBox="0 0 150 150" style="enable-background:new 0 0 150 150;" xml:space="preserve">
<style type="text/css">
	.st0{fill:#0056B8;}
</style>
<path class="st0" d="M39.1,106.6H28.9c-2.9,0-5.4-1-7.3-2.9s-2.9-4.4-2.9-7.3V41.7h-1.7c-1.5,0-2.7-0.5-3.7-1.5
	c-1-1-1.5-2.2-1.5-3.7c0-1.5,0.5-2.7,1.5-3.6c1-1,2.2-1.5,3.7-1.5h22.2V17.8H34c-1.5,0-2.7-0.5-3.7-1.5c-1-1-1.5-2.2-1.5-3.7
	c0-1.5,0.5-2.7,1.5-3.6c1-1,2.2-1.5,3.7-1.5h20.5C56,7.5,57.2,8,58.2,9c1,1,1.5,2.2,1.5,3.7c0,1.5-0.5,2.7-1.5,3.6
	c-1,1-2.2,1.5-3.7,1.5h-5.1v13.7h22.2c1.5,0,2.7,0.5,3.7,1.5c1,1,1.5,2.2,1.5,3.7c0,1.5-0.5,2.7-1.5,3.6c-1,1-2.2,1.5-3.7,1.5h-1.7
	v54.7c0,2.9-1,5.4-2.9,7.3c-2,2-4.4,2.9-7.3,2.9H49.4v30.7c0,1.5-0.5,2.7-1.5,3.7c-1,1-2.2,1.5-3.7,1.5c-1.5,0-2.7-0.5-3.6-1.5
	s-1.5-2.2-1.5-3.7C39.1,137.3,39.1,106.6,39.1,106.6z M28.9,96.3h30.7v-13H46c-1.1,0-2-0.4-2.9-1.2c-0.8-0.8-1.2-1.8-1.2-2.9
	c0-1.1,0.4-2,1.2-2.9c0.8-0.8,1.8-1.2,2.9-1.2h13.7V62.8H46c-1.1,0-2-0.4-2.9-1.2c-0.8-0.8-1.2-1.8-1.2-2.9c0-1.1,0.4-2,1.2-2.9
	c0.8-0.8,1.8-1.2,2.9-1.2h13.7v-13H28.9C28.9,41.7,28.9,96.3,28.9,96.3z M97.2,140.8c-2.9,0-5.4-1-7.3-2.9s-2.9-4.4-2.9-7.3V84.4
	c0-3.3,0.6-6,1.9-8.2c1.3-2.2,2.5-4,3.8-5.5c1.2-1.5,2.3-2.7,3.2-3.7c0.9-1,1.4-2,1.4-3.2v-5.1h-1.7c-1.5,0-2.7-0.5-3.7-1.5
	c-1-1-1.5-2.2-1.5-3.7c0-1.5,0.5-2.7,1.5-3.6c1-1,2.2-1.5,3.7-1.5h34.2c1.5,0,2.7,0.5,3.7,1.5c1,1,1.5,2.2,1.5,3.7
	c0,1.5-0.5,2.7-1.5,3.6c-1,1-2.2,1.5-3.7,1.5h-1.7v5.1c0,1.1,0.5,2.2,1.5,3.3c1,1.1,2.1,2.4,3.4,3.8c1.3,1.5,2.5,3.3,3.6,5.5
	c1.2,2.1,1.7,4.7,1.7,7.8v46.1c0,2.9-1,5.4-2.9,7.3c-2,2-4.4,2.9-7.3,2.9C127.9,140.8,97.2,140.8,97.2,140.8z M97.2,88.9h30.7v-4.5
	c0-2-0.5-3.6-1.5-5s-2.2-2.8-3.5-4.4c-1.2-1.4-2.4-2.9-3.5-4.6c-1.1-1.7-1.7-3.9-1.7-6.5v-5.1h-10.2v5.1c0,2.5-0.5,4.7-1.6,6.4
	c-1.1,1.7-2.2,3.2-3.4,4.6c-1.3,1.5-2.5,3-3.6,4.4c-1.1,1.4-1.6,3.1-1.6,5.1C97.2,84.4,97.2,88.9,97.2,88.9z M97.2,109.4h30.7V97
	H97.2C97.2,97,97.2,109.4,97.2,109.4z M97.2,130.5h30.7v-13H97.2V130.5z M97.2,109.4h30.7H97.2z"/>
</svg>
