<?xml version="1.0" encoding="utf-8"?>
<!-- Generator: Adobe Illustrator 27.0.0, SVG Export Plug-In . SVG Version: 6.00 Build 0)  -->
<svg version="1.1" id="Layer_1" xmlns="http://www.w3.org/2000/svg" xmlns:xlink="http://www.w3.org/1999/xlink" x="0px" y="0px"
	 viewBox="0 0 150 150" style="enable-background:new 0 0 150 150;" xml:space="preserve">
<style type="text/css">
	.st0{fill:#0056B8;}
</style>
<path class="st0" d="M21.6,139.8c-4.9,0-8.3-2.2-10.4-6.5c-2.1-4.3-1.6-8.4,1.5-12.1l43.2-52.5V21.6h-9.1c-1.6,0-3-0.5-4.1-1.6
	c-1.1-1.1-1.6-2.5-1.6-4.1c0-1.6,0.5-3,1.6-4.1c1.1-1.1,2.5-1.6,4.1-1.6h56.3c1.6,0,3,0.5,4.1,1.6c1.1,1.1,1.6,2.5,1.6,4.1
	c0,1.6-0.5,3-1.6,4.1c-1.1,1.1-2.5,1.6-4.1,1.6h-9.1v47.1l43.2,52.5c3,3.7,3.5,7.8,1.5,12.1c-2.1,4.3-5.5,6.5-10.4,6.5H21.6z
	 M36.9,120.8h76.3L87.2,90.3H62.8L36.9,120.8z M21.6,128.4h106.8L82.6,72.7V21.6H67.4v51.1L21.6,128.4z"/>
</svg>
