<svg width="71" height="70" viewBox="0 0 71 70" fill="none" xmlns="http://www.w3.org/2000/svg">
<path d="M35.4999 65.6133C31.8079 65.6133 28.3999 64.7267 25.2759 62.9067C22.1519 61.1333 19.6432 58.66 17.7972 55.4867H10.3659C9.56124 55.4867 8.89858 55.2067 8.37791 54.6933C7.85724 54.18 7.57324 53.5267 7.57324 52.7333C7.57324 51.94 7.85724 51.2867 8.37791 50.7733C8.89858 50.26 9.56124 49.98 10.3659 49.98H15.6672C15.2886 48.4867 15.0992 46.9467 15.0519 45.4067C15.0046 43.8667 15.0046 42.3267 15.0046 40.7867H10.3659C9.56124 40.7867 8.89858 40.5067 8.37791 39.9933C7.85724 39.48 7.57324 38.8267 7.57324 38.0333C7.57324 37.24 7.85724 36.5867 8.37791 36.0733C8.89858 35.56 9.56124 35.28 10.3659 35.28H15.0046C15.0046 33.74 15.0046 32.2 15.0046 30.66C15.0046 29.12 15.2412 27.6267 15.6672 26.1333H10.3659C9.56124 26.1333 8.89858 25.8533 8.37791 25.34C7.85724 24.8267 7.57324 24.1733 7.57324 23.38C7.57324 22.5867 7.85724 21.9333 8.37791 21.42C8.89858 20.9067 9.56124 20.6267 10.3659 20.6267H17.7972C18.6966 19.1333 19.7379 17.78 20.9686 16.52C22.1992 15.3067 23.5719 14.2333 25.1339 13.3933L20.6846 8.95999C20.1639 8.44666 19.9272 7.83999 19.9272 7.09332C19.9272 6.34666 20.2112 5.69332 20.7792 5.13332C21.2999 4.61999 21.9152 4.38666 22.7199 4.38666C23.4772 4.38666 24.1399 4.61999 24.6606 5.13332L30.6719 11.06C32.2812 10.5933 33.8906 10.36 35.4999 10.36C37.1092 10.36 38.7659 10.5933 40.3279 11.06L46.4812 5.13332C47.0019 4.61999 47.6172 4.38666 48.3746 4.38666C49.1319 4.38666 49.7946 4.66666 50.3626 5.22666C50.8832 5.73999 51.1199 6.34666 51.1199 7.13999C51.1199 7.88666 50.8832 8.53999 50.3626 9.05332L45.8659 13.4867C47.4279 14.3267 48.8479 15.3533 50.0786 16.5667C51.3092 17.78 52.3506 19.18 53.2499 20.72H60.6812C61.4859 20.72 62.1486 21 62.6692 21.5133C63.1899 22.0267 63.4739 22.68 63.4739 23.4733C63.4739 24.2667 63.1899 24.92 62.6692 25.4333C62.1486 25.9467 61.4859 26.2267 60.6812 26.2267H55.3799C55.8059 27.72 56.0426 29.2133 56.0426 30.7533C56.0426 32.2933 56.0426 33.8333 56.0426 35.3733H60.6812C61.4859 35.3733 62.1486 35.6533 62.6692 36.1667C63.1899 36.68 63.4739 37.3333 63.4739 38.1267C63.4739 38.92 63.1899 39.5733 62.6692 40.0867C62.1486 40.6 61.4859 40.88 60.6812 40.88H56.0426C56.0426 42.42 56.0426 43.96 55.9952 45.5C55.9479 47.04 55.7586 48.58 55.3799 50.0733H60.6812C61.4859 50.0733 62.1486 50.3533 62.6692 50.8667C63.1899 51.38 63.4739 52.0333 63.4739 52.8267C63.4739 53.62 63.1899 54.2733 62.6692 54.7867C62.1486 55.3 61.4859 55.58 60.6812 55.58H53.2499C51.4039 58.7067 48.9426 61.18 45.7712 63C42.5999 64.7267 39.1919 65.6133 35.4999 65.6133ZM35.4999 60.1067C39.5706 60.1067 43.1206 58.66 46.0079 55.8133C48.9426 52.92 50.3626 49.4667 50.3626 45.4533V30.7533C50.3626 26.74 48.8952 23.24 46.0079 20.3933C43.0732 17.5 39.5706 16.1 35.4999 16.1C31.4292 16.1 27.8792 17.5467 24.9919 20.3933C22.1046 23.24 20.6372 26.74 20.6372 30.7533V45.4533C20.6372 49.4667 22.1046 52.9667 24.9919 55.8133C27.8792 58.66 31.4292 60.1067 35.4999 60.1067ZM31.4292 48.2067H39.5706C40.3752 48.2067 41.0379 47.9267 41.5586 47.4133C42.0792 46.9 42.3632 46.2467 42.3632 45.4533C42.3632 44.66 42.0792 44.0067 41.5586 43.4933C41.0379 42.98 40.3752 42.7 39.5706 42.7H31.4292C30.6246 42.7 29.9619 42.98 29.4412 43.4933C28.9206 44.0067 28.6366 44.66 28.6366 45.4533C28.6366 46.2467 28.9206 46.9 29.4412 47.4133C29.9619 47.9267 30.6246 48.2067 31.4292 48.2067ZM31.4292 33.5067H39.5706C40.3752 33.5067 41.0379 33.2267 41.5586 32.7133C42.0792 32.2 42.3632 31.5467 42.3632 30.7533C42.3632 29.96 42.0792 29.3067 41.5586 28.7933C41.0379 28.28 40.3752 28 39.5706 28H31.4292C30.6246 28 29.9619 28.28 29.4412 28.7933C28.9206 29.3067 28.6366 29.96 28.6366 30.7533C28.6366 31.5467 28.9206 32.2 29.4412 32.7133C29.9619 33.2267 30.6246 33.5067 31.4292 33.5067Z" fill="#0056BB"/>
</svg>
