<svg width="70" height="71" viewBox="0 0 70 71" fill="none" xmlns="http://www.w3.org/2000/svg">
<path d="M3.91991 34.0327C3.40658 33.4647 3.12658 32.802 3.12658 32.0447C3.12658 31.2873 3.40658 30.5773 3.91991 30.0093L13.7666 20.022L9.19325 15.3833L7.41991 17.182C6.85991 17.75 6.15991 18.0813 5.41325 18.0813C4.66658 18.0813 3.96658 17.7973 3.45325 17.182C2.89325 16.6613 2.65991 15.9987 2.65991 15.194C2.65991 14.3893 2.93991 13.7267 3.45325 13.1587L10.9199 5.63267C11.4799 5.06467 12.1332 4.73334 12.8799 4.73334C13.6266 4.73334 14.3266 5.01734 14.8866 5.63267C15.3999 6.15334 15.6799 6.816 15.6799 7.62067C15.6799 8.42534 15.3999 9.088 14.8866 9.60867L13.0666 11.4547L17.6399 16.0933L27.5332 6.01134C28.0932 5.44334 28.7932 5.112 29.5399 5.112C30.2866 5.112 30.9866 5.396 31.4999 6.01134C32.0599 6.57934 32.3866 7.242 32.3866 7.99934C32.3866 8.75667 32.1066 9.46667 31.4999 10.0347L29.2132 12.3067L55.6733 39.1447C56.9799 40.47 57.6333 42.0793 57.6333 44.02C57.6333 45.9133 56.9799 47.5227 55.6733 48.848L52.9666 51.688L66.9199 65.746C67.3866 66.2193 67.5266 66.74 67.2932 67.3553C67.0599 67.9233 66.5933 68.2073 65.9399 68.2073H63.2333C62.6266 68.2073 62.0666 68.0653 61.5066 67.8287C60.9466 67.592 60.4333 67.2607 60.0133 66.8347L48.9999 55.664L46.2932 58.504C44.9866 59.8293 43.3999 60.4447 41.5332 60.4447C39.6666 60.4447 38.0332 59.782 36.7266 58.504L10.2199 31.666L7.93325 34.0327C7.37325 34.6007 6.67325 34.8373 5.92658 34.8373C5.17991 34.8373 4.52658 34.5533 3.91991 34.0327ZM14.1399 27.7373L40.5999 54.5753C40.8332 54.812 41.1133 54.9067 41.4399 54.9067C41.7666 54.9067 42.0466 54.812 42.2799 54.5753L51.7066 44.9193C51.9399 44.6827 52.0799 44.446 52.0799 44.1147C52.0799 43.7833 51.9399 43.4993 51.7066 43.31L46.2466 37.63L40.7399 43.168C40.1799 43.736 39.4799 44.02 38.7332 44.02C37.9866 44.02 37.3332 43.7833 36.8199 43.2627C36.2599 42.6947 35.9332 42.032 35.9332 41.2747C35.9332 40.5173 36.2132 39.8073 36.8199 39.2393L42.2799 33.7013L35.6066 26.8853L30.1466 32.4707C29.5866 32.9913 28.9332 33.2753 28.1866 33.2753C27.4399 33.2753 26.7399 32.9913 26.1799 32.4707C25.6666 31.9027 25.3866 31.1927 25.3866 30.4353C25.3866 29.678 25.6666 28.968 26.1799 28.4473L31.6399 22.9093L25.2932 16.4247L14.1399 27.7373ZM14.1399 27.7373L14.3732 27.5007L14.9799 26.8853L24.4999 17.2293L25.0599 16.6613L25.2932 16.4247L14.1399 27.7373Z" fill="#0056B8"/>
</svg>
