<svg width="70" height="71" viewBox="0 0 70 71" fill="none" xmlns="http://www.w3.org/2000/svg">
<path d="M18.2466 50.4573H13.4866C12.1333 50.4573 10.9666 49.984 10.0799 49.0847C9.19326 48.1853 8.72659 47.002 8.72659 45.6293V19.738H7.93326C7.23326 19.738 6.67326 19.5013 6.20659 19.028C5.73993 18.5547 5.50659 17.9867 5.50659 17.2767C5.50659 16.5667 5.73993 15.9987 6.20659 15.5727C6.67326 15.0993 7.23326 14.8627 7.93326 14.8627H18.2933V8.42532H15.8666C15.1666 8.42532 14.6066 8.18865 14.1399 7.71532C13.6733 7.24199 13.4399 6.67399 13.4399 5.96399C13.4399 5.25399 13.6733 4.68599 14.1399 4.25999C14.6066 3.78665 15.1666 3.54999 15.8666 3.54999H25.4333C26.1333 3.54999 26.6933 3.78665 27.1599 4.25999C27.6266 4.73332 27.8599 5.30132 27.8599 6.01132C27.8599 6.72132 27.6266 7.28932 27.1599 7.71532C26.6933 8.18865 26.1333 8.42532 25.4333 8.42532H23.0533V14.91H33.4133C34.1133 14.91 34.6733 15.1467 35.1399 15.62C35.6066 16.0933 35.8399 16.6613 35.8399 17.3713C35.8399 18.0813 35.6066 18.6493 35.1399 19.0753C34.6733 19.5487 34.1133 19.7853 33.4133 19.7853H32.6199V45.6767C32.6199 47.0493 32.1533 48.2327 31.2666 49.132C30.3333 50.0787 29.2133 50.5047 27.8599 50.5047H23.0533V65.036C23.0533 65.746 22.8199 66.314 22.3533 66.7873C21.8866 67.2607 21.3266 67.4973 20.6266 67.4973C19.9266 67.4973 19.3666 67.2607 18.9466 66.7873C18.5266 66.314 18.2466 65.746 18.2466 65.036C18.2466 64.9887 18.2466 50.4573 18.2466 50.4573ZM13.4866 45.582H27.8133V39.4287H21.4666C20.9533 39.4287 20.5333 39.2393 20.1133 38.8607C19.7399 38.482 19.5533 38.0087 19.5533 37.488C19.5533 36.9673 19.7399 36.5413 20.1133 36.1153C20.4866 35.7367 20.9533 35.5473 21.4666 35.5473H27.8599V29.7253H21.4666C20.9533 29.7253 20.5333 29.536 20.1133 29.1573C19.7399 28.7787 19.5533 28.3053 19.5533 27.7847C19.5533 27.264 19.7399 26.838 20.1133 26.412C20.4866 26.0333 20.9533 25.844 21.4666 25.844H27.8599V19.6907H13.4866C13.4866 19.738 13.4866 45.582 13.4866 45.582ZM45.3599 66.6453C44.0066 66.6453 42.8399 66.172 41.9533 65.2727C41.0666 64.3733 40.5999 63.19 40.5999 61.8173V39.9493C40.5999 38.3873 40.8799 37.1093 41.4866 36.068C42.0933 35.0267 42.6533 34.1747 43.2599 33.4647C43.8199 32.7547 44.3333 32.1867 44.7533 31.7133C45.1733 31.24 45.4066 30.7667 45.4066 30.1987V27.7847H44.6133C43.9133 27.7847 43.3533 27.548 42.8866 27.0747C42.4199 26.6013 42.1866 26.0333 42.1866 25.3233C42.1866 24.6133 42.4199 24.0453 42.8866 23.6193C43.3533 23.146 43.9133 22.9093 44.6133 22.9093H60.5733C61.2733 22.9093 61.8333 23.146 62.2999 23.6193C62.7666 24.0927 62.9999 24.6607 62.9999 25.3707C62.9999 26.0807 62.7666 26.6487 62.2999 27.0747C61.8333 27.548 61.2733 27.7847 60.5733 27.7847H59.7799V30.1987C59.7799 30.7193 60.0133 31.24 60.4799 31.7607C60.9466 32.2813 61.4599 32.8967 62.0666 33.5593C62.6733 34.2693 63.2333 35.1213 63.7466 36.1627C64.3066 37.1567 64.5399 38.3873 64.5399 39.8547V61.6753C64.5399 63.048 64.0733 64.2313 63.1866 65.1307C62.2533 66.0773 61.1333 66.5033 59.7799 66.5033C59.6866 66.6453 45.3599 66.6453 45.3599 66.6453ZM45.3599 42.0793H59.6866V39.9493C59.6866 39.0027 59.4533 38.2453 58.9866 37.5827C58.5199 36.92 57.9599 36.2573 57.3533 35.5C56.7933 34.8373 56.2333 34.1273 55.7199 33.3227C55.2066 32.518 54.9266 31.4767 54.9266 30.246V27.832H50.1666V30.246C50.1666 31.4293 49.9333 32.4707 49.4199 33.2753C48.9066 34.08 48.3933 34.79 47.8333 35.4527C47.2266 36.1627 46.6666 36.8727 46.1533 37.5353C45.6399 38.198 45.4066 39.0027 45.4066 39.9493C45.3599 39.9493 45.3599 42.0793 45.3599 42.0793ZM45.3599 51.7827H59.6866V45.9133H45.3599V51.7827ZM45.3599 61.77H59.6866V55.6167H45.3599V61.77Z" fill="#0056B8"/>
</svg>
