<svg width="70" height="70" viewBox="0 0 70 70" fill="none" xmlns="http://www.w3.org/2000/svg">
<path d="M10.08 65.24C7.79338 65.24 6.20671 64.2133 5.22671 62.2067C4.24671 60.2 4.48004 58.2867 5.92671 56.56L26.0867 32.06V10.08H21.84C21.0934 10.08 20.44 9.84668 19.9267 9.33334C19.4134 8.82001 19.18 8.16668 19.18 7.42001C19.18 6.67334 19.4134 6.02001 19.9267 5.50668C20.44 4.99334 21.0934 4.76001 21.84 4.76001H48.1134C48.86 4.76001 49.5134 4.99334 50.0267 5.50668C50.54 6.02001 50.7734 6.67334 50.7734 7.42001C50.7734 8.16668 50.54 8.82001 50.0267 9.33334C49.5134 9.84668 48.86 10.08 48.1134 10.08H43.8667V32.06L64.0267 56.56C65.4267 58.2867 65.66 60.2 64.7267 62.2067C63.7467 64.2133 62.16 65.24 59.8734 65.24H10.08ZM17.22 56.3733H52.8267L40.6934 42.14H29.3067L17.22 56.3733ZM10.08 59.92H59.92L38.5467 33.9267V10.08H31.4534V33.9267L10.08 59.92Z" fill="#0056B8"/>
</svg>
