<svg width="2001" height="96" viewBox="0 0 2001 96" fill="none" xmlns="http://www.w3.org/2000/svg">
<path d="M-71 0H-30.5L17.5 48L-30.5 96H-71L-23 48L-71 0Z" fill="#D9F5FB"/>
<path d="M18 0H58.5L106.5 48L58.5 96H18L66 48L18 0Z" fill="#D9F5FB"/>
<path d="M107 0H147.5L195.5 48L147.5 96H107L155 48L107 0Z" fill="#D9F5FB"/>
<path d="M196 0H236.5L284.5 48L236.5 96H196L244 48L196 0Z" fill="#D9F5FB"/>
<path d="M285 0H325.5L373.5 48L325.5 96H285L333 48L285 0Z" fill="#D9F5FB"/>
<path d="M374 0H414.5L462.5 48L414.5 96H374L422 48L374 0Z" fill="#D9F5FB"/>
<path d="M463 0H503.5L551.5 48L503.5 96H463L511 48L463 0Z" fill="#D9F5FB"/>
<path d="M552 0H592.5L640.5 48L592.5 96H552L600 48L552 0Z" fill="#D9F5FB"/>
<path d="M641 0H681.5L729.5 48L681.5 96H641L689 48L641 0Z" fill="#D9F5FB"/>
<path d="M730 0H770.5L818.5 48L770.5 96H730L778 48L730 0Z" fill="#D9F5FB"/>
<path d="M819 0H859.5L907.5 48L859.5 96H819L867 48L819 0Z" fill="#D9F5FB"/>
<path d="M908 0H948.5L996.5 48L948.5 96H908L956 48L908 0Z" fill="#D9F5FB"/>
<path d="M997 0H1037.5L1085.5 48L1037.5 96H997L1045 48L997 0Z" fill="#D9F5FB"/>
<path d="M1086 0H1126.5L1174.5 48L1126.5 96H1086L1134 48L1086 0Z" fill="#D9F5FB"/>
<path d="M1175 0H1215.5L1263.5 48L1215.5 96H1175L1223 48L1175 0Z" fill="#D9F5FB"/>
<path d="M1264 0H1304.5L1352.5 48L1304.5 96H1264L1312 48L1264 0Z" fill="#D9F5FB"/>
<path d="M1353 0H1393.5L1441.5 48L1393.5 96H1353L1401 48L1353 0Z" fill="#D9F5FB"/>
<path d="M1442 0H1482.5L1530.5 48L1482.5 96H1442L1490 48L1442 0Z" fill="#D9F5FB"/>
<path d="M1531 0H1571.5L1619.5 48L1571.5 96H1531L1579 48L1531 0Z" fill="#D9F5FB"/>
<path d="M1620 0H1660.5L1708.5 48L1660.5 96H1620L1668 48L1620 0Z" fill="#D9F5FB"/>
<path d="M1709 0H1749.5L1797.5 48L1749.5 96H1709L1757 48L1709 0Z" fill="#D9F5FB"/>
<path d="M1798 0H1838.5L1886.5 48L1838.5 96H1798L1846 48L1798 0Z" fill="#D9F5FB"/>
<path d="M1887 0H1927.5L1975.5 48L1927.5 96H1887L1935 48L1887 0Z" fill="#D9F5FB"/>
<path d="M1976 0H2016.5L2064.5 48L2016.5 96H1976L2024 48L1976 0Z" fill="#D9F5FB"/>
</svg>
