<?xml version="1.0" encoding="utf-8"?>
<!-- Generator: Adobe Illustrator 27.0.0, SVG Export Plug-In . SVG Version: 6.00 Build 0)  -->
<svg version="1.1" id="Layer_1" xmlns="http://www.w3.org/2000/svg" xmlns:xlink="http://www.w3.org/1999/xlink" x="0px" y="0px"
	 viewBox="0 0 10.4 19" style="enable-background:new 0 0 10.4 19;" xml:space="preserve">
<style type="text/css">
	.st0{fill:#FFFFFF;}
</style>
<path class="st0" d="M2.7,9.5l7.3,7.4c0.2,0.2,0.4,0.5,0.4,0.9c0,0.3-0.1,0.6-0.4,0.9S9.5,19,9.2,19s-0.6-0.1-0.9-0.4l-7.7-7.7
	c-0.2-0.2-0.4-0.4-0.5-0.7S0,9.7,0,9.5S0.1,9,0.2,8.7s0.2-0.5,0.5-0.7l7.7-7.7C8.6,0.1,8.8,0,9.2,0s0.6,0.1,0.9,0.4s0.4,0.5,0.4,0.9
	s-0.1,0.6-0.4,0.9L2.7,9.5z"/>
</svg>
