<svg xmlns="http://www.w3.org/2000/svg" version="1.1" xmlns:xlink="http://www.w3.org/1999/xlink" xmlns:svgjs="http://svgjs.dev/svgjs" width="2000" height="625" preserveAspectRatio="none" viewBox="0 0 2000 625"><g mask="url(&quot;#SvgjsMask1087&quot;)" fill="none"><rect width="2000" height="625" x="0" y="0" fill="rgba(17, 71, 152, 1)"></rect><path d="M174.885,618.759C239.903,622.164,314.834,622.208,349.681,567.212C386.051,509.813,362.754,436.263,327.221,378.342C293.576,323.499,239.225,281.925,174.885,282.284C111.097,282.64,55.925,323.979,25.466,380.026C-3.609,433.528,-3.141,498.809,29.165,550.425C59.671,599.166,117.463,615.751,174.885,618.759" fill="rgba(17, 208, 255, 0.4)" class="triangle-float1"></path><path d="M1395.139,361.992C1458.493,361.857,1520.137,336.222,1553.626,282.443C1589.07,225.524,1596.548,152.054,1561.446,94.923C1527.668,39.947,1459.662,24.892,1395.139,24.495C1329.714,24.092,1259.616,37.181,1225.247,92.853C1189.487,150.778,1199.141,225.555,1235.478,283.12C1269.439,336.92,1331.517,362.127,1395.139,361.992" fill="rgba(17, 208, 255, 0.4)" class="triangle-float3"></path><path d="M1540.653,203.147C1571.613,203.273,1600.676,189.78,1618.038,164.146C1638.003,134.669,1650.504,97.133,1633.72,65.735C1616.208,32.976,1577.671,16.305,1540.653,19.381C1507.952,22.098,1486.356,50.255,1471.004,79.256C1456.875,105.946,1449.552,137.197,1464.351,163.521C1479.404,190.297,1509.936,203.022,1540.653,203.147" fill="rgba(17, 208, 255, 0.4)" class="triangle-float3"></path><path d="M1234.024,783.638C1281.147,785.558,1328.097,768.962,1354.634,729.975C1384.888,685.527,1397.066,628.231,1372.281,580.518C1345.747,529.438,1291.459,493.995,1234.024,497.794C1181.28,501.283,1146.658,549.082,1124.192,596.929C1105.368,637.02,1106.862,682.618,1129.318,720.793C1151.439,758.398,1190.431,781.862,1234.024,783.638" fill="rgba(17, 208, 255, 0.4)" class="triangle-float3"></path><path d="M1917.789,365.64C1959.642,366.282,2009.168,369.475,2030.436,333.423C2051.872,297.086,2027.128,253.945,2004.794,218.154C1984.225,185.191,1956.635,153.67,1917.789,152.905C1877.879,152.119,1845.25,180.42,1824.638,214.605C1803.192,250.174,1789.173,294.704,1810.976,330.055C1832.091,364.29,1877.571,365.023,1917.789,365.64" fill="rgba(17, 208, 255, 0.4)" class="triangle-float2"></path><path d="M1719.527,259.274C1763.124,260.957,1802.826,235.478,1825.16,197.999C1848.063,159.565,1852.466,111.917,1830.598,72.884C1808.262,33.016,1765.169,7.193,1719.527,9.45C1677.065,11.55,1645.319,45.141,1625.982,83.003C1608.537,117.16,1609.157,156.474,1627.136,190.353C1646.44,226.728,1678.378,257.685,1719.527,259.274" fill="rgba(17, 208, 255, 0.4)" class="triangle-float2"></path><path d="M1677.826,546.922C1736.759,547.184,1787.743,507.894,1815.347,455.824C1841.246,406.97,1838.305,347.526,1808.077,301.226C1780.383,258.807,1728.441,243.077,1677.826,245.182C1631.165,247.123,1590.439,272.116,1565.081,311.333C1536.941,354.853,1520.035,407.863,1542.407,454.611C1567.683,507.426,1619.275,546.662,1677.826,546.922" fill="rgba(17, 208, 255, 0.4)" class="triangle-float3"></path></g><defs><mask id="SvgjsMask1087"><rect width="2000" height="625" fill="#ffffff"></rect></mask><style>
                @keyframes float1 {
                    0%{transform: translate(0, 0)}
                    50%{transform: translate(-10px, 0)}
                    100%{transform: translate(0, 0)}
                }

                .triangle-float1 {
                    animation: float1 5s infinite;
                }

                @keyframes float2 {
                    0%{transform: translate(0, 0)}
                    50%{transform: translate(-5px, -5px)}
                    100%{transform: translate(0, 0)}
                }

                .triangle-float2 {
                    animation: float2 4s infinite;
                }

                @keyframes float3 {
                    0%{transform: translate(0, 0)}
                    50%{transform: translate(0, -10px)}
                    100%{transform: translate(0, 0)}
                }

                .triangle-float3 {
                    animation: float3 6s infinite;
                }
            </style></defs></svg>