<?xml version="1.0" encoding="utf-8"?>
<!-- Generator: Adobe Illustrator 27.0.0, SVG Export Plug-In . SVG Version: 6.00 Build 0)  -->
<svg version="1.1" xmlns="http://www.w3.org/2000/svg" xmlns:xlink="http://www.w3.org/1999/xlink" x="0px" y="0px"
	 viewBox="0 0 1614.35 1426.21" style="enable-background:new 0 0 1614.35 1426.21;" xml:space="preserve">
<style type="text/css">
	.st0{fill:none;stroke:#0056B8;stroke-width:10;stroke-miterlimit:10;}
	.st1{fill:#FFFFFF;stroke:#0056B8;stroke-width:7.8431;stroke-miterlimit:10;}
</style>
<g id="Layer_1">
	<path class="st0" d="M1032.52,355c96.65,0,175-78.35,175-175s-78.35-175-175-175"/>
	<path class="st0" d="M1032.52,1055c96.65,0,175-78.35,175-175s-78.35-175-175-175"/>
	<path class="st0" d="M196.21,355c-96.65,0-175,78.35-175,175s78.35,175,175,175"/>
	<path class="st0" d="M196.21,1055c-96.65,0-175,78.35-175,175s78.35,175,175,175"/>
</g>
<g id="Layer_2">
	<line class="st0" x1="1614.35" y1="1405" x2="196.21" y2="1405"/>
	<line class="st0" x1="1032.52" y1="355" x2="196.21" y2="355"/>
	<line class="st0" x1="1032.52" y1="1055" x2="196.21" y2="1055"/>
	<line class="st0" x1="1032.52" y1="705" x2="196.21" y2="705"/>
	<circle class="st1" cx="258.89" cy="1055" r="17.29"/>
	<circle class="st1" cx="629.23" cy="1055" r="17.29"/>
	<circle class="st1" cx="988.73" cy="1055" r="17.29"/>
	<circle class="st1" cx="258.89" cy="705" r="17.29"/>
	<circle class="st1" cx="629.23" cy="705" r="17.29"/>
	<circle class="st1" cx="988.73" cy="705" r="17.29"/>
	<circle class="st1" cx="1207.52" cy="880" r="17.29"/>
	<circle class="st1" cx="21.21" cy="1230" r="17.29"/>
	<circle class="st1" cx="21.21" cy="542.25" r="17.29"/>
	<circle class="st1" cx="258.89" cy="355" r="17.29"/>
	<circle class="st1" cx="629.23" cy="355" r="17.29"/>
	<circle class="st1" cx="988.73" cy="355" r="17.29"/>
	<circle class="st1" cx="323.32" cy="1405" r="17.29"/>
	<circle class="st1" cx="748.13" cy="1405" r="17.29"/>
	<circle class="st1" cx="1172.94" cy="1405" r="17.29"/>
</g>
</svg>
