<?xml version="1.0" encoding="utf-8"?>
<!-- Generator: Adobe Illustrator 27.0.0, SVG Export Plug-In . SVG Version: 6.00 Build 0)  -->
<svg version="1.1" id="Layer_1" xmlns="http://www.w3.org/2000/svg" xmlns:xlink="http://www.w3.org/1999/xlink" x="0px" y="0px"
	 viewBox="0 0 1614.35 1776.21" style="enable-background:new 0 0 1614.35 1776.21;" xml:space="preserve">
<style type="text/css">
	.st0{fill:none;stroke:#0056B8;stroke-width:10;stroke-miterlimit:10;}
	.st1{fill:#FFFFFF;stroke:#0056B8;stroke-width:7.8431;stroke-miterlimit:10;}
</style>
<g id="Layer_1_00000006681263436234066130000001028230598460190895_">
	<path class="st0" d="M1418.14,371.21c96.65,0,175-78.35,175-175s-78.35-175-175-175"/>
	<path class="st0" d="M1418.14,1071.21c96.65,0,175-78.35,175-175s-78.35-175-175-175"/>
	<path class="st0" d="M1418.14,1771.21c96.65,0,175-78.35,175-175s-78.35-175-175-175"/>
	<path class="st0" d="M581.83,371.21c-96.65,0-175,78.35-175,175s78.35,175,175,175"/>
	<path class="st0" d="M581.83,1071.21c-96.65,0-175,78.35-175,175s78.35,175,175,175"/>
</g>
<g id="Layer_2_00000026869240023785482980000014972809716871987358_">
	<line class="st0" x1="1418.14" y1="21.21" x2="0" y2="21.21"/>
	<line class="st0" x1="1418.14" y1="371.21" x2="581.83" y2="371.21"/>
	<line class="st0" x1="1418.14" y1="1071.21" x2="581.83" y2="1071.21"/>
	<line class="st0" x1="1418.14" y1="721.21" x2="581.83" y2="721.21"/>
	<line class="st0" x1="1418.14" y1="1421.21" x2="581.83" y2="1421.21"/>
</g>
<circle class="st1" cx="406.83" cy="1246.21" r="17.29"/>
<circle class="st1" cx="406.83" cy="563.5" r="17.29"/>
<circle class="st1" cx="1593.14" cy="178.92" r="17.29"/>
<circle class="st1" cx="1593.14" cy="896.21" r="17.29"/>
<circle class="st1" cx="631.39" cy="371.21" r="17.29"/>
<circle class="st1" cx="511.62" cy="21.21" r="17.29"/>
<circle class="st1" cx="1001.73" cy="371.21" r="17.29"/>
<circle class="st1" cx="936.43" cy="21.21" r="17.29"/>
<circle class="st1" cx="1361.24" cy="371.21" r="17.29"/>
<circle class="st1" cx="1361.24" cy="21.21" r="17.29"/>
<circle class="st1" cx="631.39" cy="721.21" r="17.29"/>
<circle class="st1" cx="1001.73" cy="721.21" r="17.29"/>
<circle class="st1" cx="1361.24" cy="721.21" r="17.29"/>
<circle class="st1" cx="631.39" cy="1071.21" r="17.29"/>
<circle class="st1" cx="1001.73" cy="1071.21" r="17.29"/>
<circle class="st1" cx="1361.24" cy="1071.21" r="17.29"/>
<circle class="st1" cx="631.39" cy="1421.21" r="17.29"/>
<circle class="st1" cx="1001.73" cy="1421.21" r="17.29"/>
<circle class="st1" cx="1361.24" cy="1421.21" r="17.29"/>
</svg>
